<svg width="47" height="47" viewBox="0 0 47 47" fill="none" xmlns="http://www.w3.org/2000/svg">
<circle cx="23.5" cy="23.5" r="23.5" fill="#DEF858"/>
<path d="M26.7641 15.9503C26.3402 15.5962 25.7096 15.6528 25.3556 16.0767C25.0015 16.5006 25.0581 17.1312 25.482 17.4853L26.7641 15.9503ZM33.9747 23.2761L34.6158 24.0436L34.6158 22.5086L33.9747 23.2761ZM25.482 29.0669C25.0581 29.421 25.0015 30.0516 25.3556 30.4755C25.7096 30.8994 26.3402 30.956 26.7641 30.6019L25.482 29.0669ZM25.482 17.4853L33.3337 24.0436L34.6158 22.5086L26.7641 15.9503L25.482 17.4853ZM33.3337 22.5086L25.482 29.0669L26.7641 30.6019L34.6158 24.0436L33.3337 22.5086Z" fill="#212228"/>
<path d="M34.1393 24.3105C34.6916 24.3105 35.1393 23.8628 35.1393 23.3105C35.1393 22.7583 34.6916 22.3105 34.1393 22.3105L34.1393 24.3105ZM12.6699 22.3105C12.1176 22.3105 11.6699 22.7583 11.6699 23.3105C11.6699 23.8628 12.1176 24.3105 12.6699 24.3105L12.6699 22.3105ZM34.1393 22.3105L12.6699 22.3105L12.6699 24.3105L34.1393 24.3105L34.1393 22.3105Z" fill="#212228"/>
</svg>
